<svg width="188" height="30" viewBox="0 0 188 30" fill="none" xmlns="http://www.w3.org/2000/svg">
<g clip-path="url(#clip0_1_930)">
<path d="M36.9062 19.0938C36.5606 19.3301 36.164 19.5491 35.7139 19.72C34.8117 20.0691 33.8666 20.1698 33.2297 20.0597C33.7471 19.8092 34.2759 19.5193 34.7923 19.1844C34.8619 19.1383 35.4084 18.754 35.4288 18.7439C35.7983 18.464 36.1599 18.1779 36.4844 17.8835C36.5094 17.8635 36.6901 17.7039 36.7549 17.6334C36.8092 17.5787 36.9651 17.4278 36.9904 17.4088C39.0991 15.2922 39.9739 12.8561 38.9339 11.4555C38.4072 10.7352 37.4465 10.3993 36.2835 10.4249C35.8382 10.7601 35.2989 11.0705 34.6853 11.305C33.6958 11.6894 32.7054 11.8203 31.9029 11.7254C32.6936 11.3753 33.5061 10.9352 34.2998 10.3993C34.3757 10.3491 34.4509 10.2993 34.5163 10.2435C38.172 7.65324 40.3196 3.76132 38.9094 1.84044C38.4969 1.28445 37.851 0.93432 37.0555 0.784512C36.9908 0.769289 36.6451 0.729847 36.6292 0.729847C36.5003 0.715316 36.3545 0.70459 36.2535 0.70459C31.6525 0.464481 25.9441 3.41603 22.1492 8.37322C16.8698 15.2728 16.671 23.8862 21.7031 27.6041C24.6829 29.8104 28.8279 29.8056 32.8082 28.0096C33.0554 27.8945 33.9057 27.4436 34.2763 27.2091C34.5066 27.0592 35.3031 26.5133 35.4894 26.359C38.1381 24.2326 39.3846 21.4565 38.2691 19.9501C37.9525 19.52 37.486 19.2391 36.9062 19.0938Z" fill="#FC004A"/>
<path d="M7.81672 21.9947V3.4699C7.81672 2.26036 6.84563 1.28366 5.63974 1.24457H0.000930786V26.6578C0.0348704 27.8383 0.987944 28.7887 2.1734 28.8191H14.8672V21.9943L7.81672 21.9947Z" fill="#FC004A"/>
<path d="M50.6221 9.01871C50.6221 8.18732 51.1582 7.53238 52.5992 7.53238C53.7771 7.53238 55.0031 7.75727 56.1795 8.23853C57.0755 8.5935 57.9423 9.10313 58.7326 9.76325L61.0876 5.93154C61.9375 4.57599 61.7318 3.38478 60.4151 2.66549C60.3852 2.65061 60.3607 2.64023 60.3361 2.62432C58.1975 1.42515 55.6403 0.794434 52.8943 0.794434C46.1095 0.794434 42.6346 5.17626 42.6346 9.64355C42.6346 19.4784 54.8427 17.8626 54.8427 20.9245C54.8427 21.9556 53.7653 22.5752 52.3188 22.5752C49.6299 22.5752 47.1055 21.4196 45.4481 19.6835L43.0855 23.5464C42.3551 24.6674 42.3281 26.152 43.5363 26.9934C43.552 27.0128 43.5793 27.0176 43.6001 27.038C45.8387 28.4928 48.6643 29.3193 52.3637 29.3193C58.7735 29.3193 62.7461 25.7572 62.7461 20.144C62.7461 10.8396 50.6221 11.9097 50.6221 9.01871Z" fill="#FC004A"/>
<path d="M91.7641 2.81095C91.5041 2.01002 90.8623 1.24506 89.3216 1.24506H81.824L73.718 28.82H79.8009C80.7733 28.7892 81.5886 28.1436 81.8694 27.2686L82.4651 25.263H90.6261L91.1778 27.1679C91.4297 28.0979 92.275 28.7895 93.2772 28.82H99.4167L91.7641 2.81095ZM84.4776 18.4382L86.5863 10.6896L88.6646 18.4382H84.4776Z" fill="#FC004A"/>
<path d="M108.238 1.24457H102.6V26.6225C102.616 27.8231 103.581 28.789 104.772 28.8195H110.417V3.43565C110.417 2.19463 109.429 1.28436 108.238 1.24457Z" fill="#FC004A"/>
<path d="M123.906 21.9947V3.4699C123.902 2.26036 122.931 1.28366 121.725 1.24457H116.087V26.6578C116.12 27.8383 117.082 28.7887 118.259 28.8191H130.964V21.9943L123.906 21.9947Z" fill="#FC004A"/>
<path d="M152.99 19.0938C152.651 19.3301 152.246 19.5491 151.794 19.72C150.892 20.0691 149.945 20.1698 149.311 20.0597C149.837 19.8092 150.366 19.5193 150.884 19.1844C150.949 19.1383 151.497 18.754 151.513 18.7439C151.888 18.464 152.239 18.1779 152.571 17.8835C152.601 17.8635 152.774 17.7039 152.842 17.6334C152.905 17.5787 153.057 17.4278 153.07 17.4088C155.185 15.2922 156.061 12.8561 155.029 11.4555C154.494 10.7352 153.543 10.3993 152.369 10.4249C151.925 10.7601 151.383 11.0705 150.778 11.305C149.785 11.6894 148.796 11.8203 147.988 11.7254C148.79 11.3753 149.596 10.9352 150.392 10.3993C150.463 10.3491 150.532 10.2993 150.612 10.2435C154.262 7.65324 156.409 3.76132 155 1.84044C154.588 1.28445 153.942 0.93432 153.14 0.784512C153.07 0.769289 152.735 0.729847 152.715 0.729847C152.596 0.715316 152.441 0.70459 152.339 0.70459C147.742 0.464481 142.026 3.41603 138.233 8.37322C132.951 15.2728 132.76 23.8862 137.781 27.6041C140.768 29.8104 144.914 29.8056 148.894 28.0096C149.135 27.8945 149.986 27.4436 150.365 27.2091C150.597 27.0592 151.389 26.5133 151.572 26.359C154.229 24.2326 155.465 21.4565 154.358 19.9501C154.047 19.52 153.572 19.2398 152.989 19.0944L152.99 19.0938Z" fill="#FC004A"/>
<path d="M166.706 9.01871C166.706 8.18732 167.244 7.53238 168.695 7.53238C169.861 7.53238 171.095 7.75727 172.266 8.23853C173.168 8.5935 174.035 9.10313 174.82 9.76325L177.172 5.93154C178.024 4.57599 177.819 3.38478 176.498 2.66549C176.477 2.65061 176.453 2.64023 176.422 2.62432C174.284 1.42515 171.731 0.794434 168.98 0.794434C162.196 0.794434 158.721 5.17626 158.721 9.64355C158.721 19.4784 170.929 17.8626 170.929 20.9245C170.929 21.9556 169.852 22.5752 168.405 22.5752C165.71 22.5752 163.192 21.4196 161.534 19.6835L159.176 23.5464C158.441 24.6674 158.411 26.152 159.621 26.9934C159.647 27.0128 159.663 27.0176 159.686 27.038C161.931 28.4928 164.744 29.3193 168.444 29.3193C174.859 29.3193 178.83 25.7572 178.83 20.144C178.83 10.8396 166.706 11.9097 166.706 9.01871Z" fill="#FC004A"/>
<path d="M184.354 5.6717H183.734V2.17004H184.305C184.606 2.16486 184.775 2.16486 184.806 2.16486C185.647 2.16486 186.068 2.51982 186.068 3.2405C186.068 3.51072 185.997 3.72971 185.86 3.90063C185.731 4.06117 185.571 4.18087 185.4 4.23554L186.497 5.6717H185.747L184.785 4.36597H184.355L184.354 5.6717ZM184.354 2.7454V3.78023H184.754C185.136 3.78023 185.421 3.58544 185.421 3.245C185.421 2.90525 185.211 2.73503 184.775 2.73503C184.714 2.73503 184.57 2.73987 184.354 2.7454Z" fill="#FC004A"/>
<path d="M184.875 7.03767C183.148 7.03767 181.745 5.63161 181.745 3.9114C181.745 2.195 183.148 0.795166 184.875 0.795166C186.599 0.795166 188 2.195 188 3.9114C188 5.63161 186.598 7.03767 184.875 7.03767ZM184.875 1.32486C183.448 1.32486 182.276 2.48008 182.276 3.9114C182.276 5.34618 183.448 6.50798 184.875 6.50798C186.307 6.50798 187.474 5.34653 187.474 3.9114C187.474 2.48044 186.307 1.32486 184.875 1.32486Z" fill="#FC004A"/>
</g>
<defs>
<clipPath id="clip0_1_930">
<rect width="188" height="28.6294" fill="white" transform="translate(0 0.690308)"/>
</clipPath>
</defs>
</svg>
